Coordinates
version=1
nRows=5
nColumns=63
inDegrees=yes

Units are S.I. units (second, meters, Newtons, ...)
If the header above contains a line with 'inDegrees', this indicates whether rotational values are in degrees (yes) or radians (no).

endheader
time	pelvis_tilt	pelvis_list	pelvis_rotation	pelvis_tx	pelvis_ty	pelvis_tz	hip_flexion_r	hip_adduction_r	hip_rotation_r	knee_angle_r	knee_angle_r_beta	ankle_angle_r	subtalar_angle_r	mtp_angle_r	hip_flexion_l	hip_adduction_l	hip_rotation_l	knee_angle_l	knee_angle_l_beta	ankle_angle_l	subtalar_angle_l	mtp_angle_l	L5_S1_Flex_Ext	L5_S1_Lat_Bending	L5_S1_axial_rotation	L4_L5_Flex_Ext	L4_L5_Lat_Bending	L4_L5_axial_rotation	L3_L4_Flex_Ext	L3_L4_Lat_Bending	L3_L4_axial_rotation	L2_L3_Flex_Ext	L2_L3_Lat_Bending	L2_L3_axial_rotation	L1_L2_Flex_Ext	L1_L2_Lat_Bending	L1_L2_axial_rotation	L1_T12_Flex_Ext	L1_T12_Lat_Bending	L1_T12_axial_rotation	Abs_r3	Abs_r2	Abs_r1	Abs_t1	Abs_t2	neck_flexion	neck_bending	neck_rotation	arm_flex_r	arm_add_r	arm_rot_r	elbow_flex_r	pro_sup_r	wrist_flex_r	wrist_dev_r	arm_flex_l	arm_add_l	arm_rot_l	elbow_flex_l	pro_sup_l	wrist_flex_l	wrist_dev_l
      2.55932203	      0.11539870	     -1.19881551	    116.69964076	      0.17587217	      1.01415489	      0.43694359	      0.13842715	     -3.03289013	    -26.20863016	     12.34355360	      0.21543565	     32.32244410	     -2.10177992	      0.00000000	      2.87850564	      1.73527497	     22.26333782	      3.98809579	      0.06960540	     26.34935417	      5.37793000	      0.00000000	      0.14954508	     -0.11197711	      0.75596523	      0.27772017	     -0.14892955	      0.80321305	      0.24568761	     -0.27226113	      0.80321305	      0.17091507	     -0.27226113	      0.66146957	      0.13886756	     -0.22834371	      0.61422175	      0.08545006	     -0.17345254	      0.56697392	      1.06818555	     -1.26670741	      4.20445180	      0.00000000	      0.00000000	     16.57752570	     10.63778528	      5.01237903	     36.78973325	    -19.06545644	     -3.97109118	    112.87768585	     62.94183812	     -7.33459982	     16.94900832	    -34.18922217	    -31.79015510	     -2.18948450	    103.92466269	     85.72739005	     23.81331339	     16.88674030
      2.57627119	      0.14512888	     -1.31866764	    116.66047458	      0.17602276	      1.01400841	      0.43675719	      0.40268834	     -3.07082621	    -25.75417338	     12.64525892	      0.22070140	     32.02237966	     -2.97040008	      0.00000000	      2.87882672	      1.73355094	     22.43641003	      3.77620330	      0.06590718	     26.17413359	      5.03510123	      0.00000000	      0.15529283	     -0.10993609	      0.69893902	      0.28839431	     -0.14621500	      0.74262271	      0.25513059	     -0.26729860	      0.74262271	      0.17748417	     -0.26729860	      0.61157164	      0.14420492	     -0.22418167	      0.56788795	      0.08873432	     -0.17029100	      0.52420427	      1.10924115	     -1.24361902	      3.88728916	      0.00000000	      0.00000000	     17.10090151	     10.28265115	      4.77377629	     38.42583864	    -18.54330074	     -4.15040489	    112.78840512	     66.76056730	     -5.77573364	     16.86723592	    -34.91903166	    -32.42977436	     -2.12264087	    103.96223258	     85.49161229	     24.34126427	     15.87279873
      2.59322034	      0.25757713	     -1.45742326	    116.61375291	      0.17586796	      1.01376498	      0.43647142	      0.65472015	     -3.08393899	    -25.88051181	     12.83120834	      0.22394683	     31.86237534	     -3.02975328	      0.00000000	      2.93871808	      1.67871264	     22.37947289	      3.59400994	      0.06272731	     26.12409790	      4.98776882	      0.00000000	      0.16484810	     -0.09944844	      0.68109518	      0.30613941	     -0.13226642	      0.72366363	      0.27082895	     -0.24179893	      0.72366363	      0.18840490	     -0.24179893	      0.59595829	      0.15307795	     -0.20279525	      0.55338984	      0.09419421	     -0.15404563	      0.51082139	      1.17749351	     -1.12498060	      3.78804709	      0.00000000	      0.00000000	     17.53606388	     10.33195117	      4.61808691	     39.80800826	    -18.61694289	     -4.04096689	    113.08995211	     67.01477146	     -5.63957649	     16.79990718	    -35.49421464	    -32.83022668	     -2.00583001	    104.15986275	     85.42155586	     24.36513474	     15.81255753
      2.61016949	      0.36136618	     -1.63241918	    116.80942397	      0.17546469	      1.01329052	      0.43660331	      1.02972132	     -3.18854535	    -26.11116809	     13.24215714	      0.23111924	     32.07272945	     -3.03286566	      0.00000000	      3.08147635	      1.69822824	     22.87666473	      3.46448891	      0.06046674	     25.99475806	      4.45542306	      0.00000000	      0.15362264	     -0.08913261	      0.52165620	      0.28529260	     -0.11854637	      0.55425972	      0.25238663	     -0.21671702	      0.55425972	      0.17557531	     -0.21671702	      0.45644918	      0.14265398	     -0.18175921	      0.42384567	      0.08777997	     -0.13806641	      0.39124215	      1.09731114	     -1.00828587	      2.90129531	      0.00000000	      0.00000000	     18.62597360	     10.60814429	      4.75295991	     41.47161096	    -18.23710207	     -3.76363356	    113.29279360	     73.36080042	     -4.70280144	     16.48054886	    -36.99238701	    -32.13779565	     -2.81494751	    104.34024296	     85.17836797	     21.56599991	     14.29972048
      2.62711864	      0.60527334	     -1.76371141	    116.75234138	      0.17497611	      1.01299838	      0.43648403	      1.43881119	     -3.14996659	    -26.22475817	     13.57266787	      0.23688774	     32.22593435	     -2.90443611	      0.00000000	      3.21550197	      1.54492601	     22.89270277	      3.31863317	      0.05792108	     26.02994173	      4.38496761	      0.00000000	      0.15348818	     -0.06235947	      0.51290626	      0.28504289	     -0.08293809	      0.54496290	      0.25216572	     -0.15162081	      0.54496290	      0.17542164	     -0.15162081	      0.44879298	      0.14252912	     -0.12716343	      0.41673634	      0.08770314	     -0.09659481	      0.38467970	      1.09635069	     -0.70542277	      2.85263076	      0.00000000	      0.00000000	     19.54464418	     10.73078941	      3.97465246	     42.54434593	    -18.73583793	     -3.60234001	    114.12044993	     73.79247213	     -4.59644602	     16.47568010	    -37.56189254	    -30.99484500	     -3.66534658	    104.15027018	     85.08565715	     21.46911371	     14.18507446
